<mxfile host="app.diagrams.net" agent="Mozilla/5.0 (Windows NT 10.0; Win64; x64) AppleWebKit/537.36 (KHTML, like Gecko) Chrome/133.0.0.0 Safari/537.36 Edg/133.0.0.0" version="26.0.16">
  <diagram name="第 1 页" id="dpO4N9l2LSgBsFgAQWY7">
    <mxGraphModel dx="919" dy="1149" grid="1" gridSize="10" guides="1" tooltips="1" connect="1" arrows="1" fold="1" page="1" pageScale="1" pageWidth="827" pageHeight="1169" math="1" shadow="0">
      <root>
        <mxCell id="0" />
        <mxCell id="1" parent="0" />
        <mxCell id="hFaYfOK_HxvKMeCbFPiz-2" value="" style="rounded=1;whiteSpace=wrap;html=1;dashed=1;strokeWidth=2;strokeColor=#999999;" parent="1" vertex="1">
          <mxGeometry x="6" y="40" width="814" height="780" as="geometry" />
        </mxCell>
        <mxCell id="mn31JmgTFe-Z0Zx-DjP2-169" value="" style="rounded=1;whiteSpace=wrap;html=1;fillColor=#f8cecc;strokeColor=#FFFFFF;shadow=1;" parent="1" vertex="1">
          <mxGeometry x="492.12" y="111.5" width="303.25" height="350" as="geometry" />
        </mxCell>
        <mxCell id="mn31JmgTFe-Z0Zx-DjP2-168" value="" style="rounded=1;whiteSpace=wrap;html=1;strokeColor=#FFFFFF;fillColor=#dae8fc;container=0;textShadow=1;shadow=1;" parent="1" vertex="1">
          <mxGeometry x="57" y="111.5" width="330" height="478.5" as="geometry" />
        </mxCell>
        <mxCell id="mn31JmgTFe-Z0Zx-DjP2-2" value="" style="rounded=1;whiteSpace=wrap;html=1;strokeColor=#FFFFFF;fillColor=#dae8fc;container=0;shadow=1;glass=0;" parent="1" vertex="1">
          <mxGeometry x="27" y="130" width="330" height="488.5" as="geometry" />
        </mxCell>
        <mxCell id="mn31JmgTFe-Z0Zx-DjP2-4" style="edgeStyle=orthogonalEdgeStyle;rounded=0;orthogonalLoop=1;jettySize=auto;html=1;exitX=0.5;exitY=0;exitDx=0;exitDy=0;strokeWidth=2;" parent="1" source="mn31JmgTFe-Z0Zx-DjP2-5" target="mn31JmgTFe-Z0Zx-DjP2-7" edge="1">
          <mxGeometry relative="1" as="geometry" />
        </mxCell>
        <mxCell id="mn31JmgTFe-Z0Zx-DjP2-5" value="&lt;font face=&quot;宋体&quot; style=&quot;font-size: 18px; color: rgb(0, 0, 0);&quot;&gt;多头自注意力&lt;/font&gt;" style="rounded=1;whiteSpace=wrap;html=1;fillColor=#FFE599;strokeColor=#000000;container=0;strokeWidth=2;" parent="1" vertex="1">
          <mxGeometry x="132" y="560" width="184.5" height="30" as="geometry" />
        </mxCell>
        <mxCell id="mn31JmgTFe-Z0Zx-DjP2-6" style="edgeStyle=orthogonalEdgeStyle;rounded=0;orthogonalLoop=1;jettySize=auto;html=1;entryX=0.5;entryY=1;entryDx=0;entryDy=0;strokeWidth=2;" parent="1" source="mn31JmgTFe-Z0Zx-DjP2-7" target="mn31JmgTFe-Z0Zx-DjP2-9" edge="1">
          <mxGeometry relative="1" as="geometry" />
        </mxCell>
        <mxCell id="mn31JmgTFe-Z0Zx-DjP2-7" value="&lt;font face=&quot;Times New Roman&quot; style=&quot;font-size: 18px; color: rgb(0, 0, 0);&quot;&gt;Add &amp;amp; Norm&lt;/font&gt;" style="rounded=1;whiteSpace=wrap;html=1;fillColor=#E6E6E6;strokeColor=#000000;fontColor=#B3B3B3;container=0;strokeWidth=2;align=center;verticalAlign=middle;fontFamily=Helvetica;fontSize=12;" parent="1" vertex="1">
          <mxGeometry x="132.5" y="476" width="184.5" height="30" as="geometry" />
        </mxCell>
        <mxCell id="mn31JmgTFe-Z0Zx-DjP2-8" style="edgeStyle=orthogonalEdgeStyle;rounded=0;orthogonalLoop=1;jettySize=auto;html=1;entryX=0.5;entryY=1;entryDx=0;entryDy=0;strokeWidth=2;" parent="1" source="mn31JmgTFe-Z0Zx-DjP2-9" target="mn31JmgTFe-Z0Zx-DjP2-13" edge="1">
          <mxGeometry relative="1" as="geometry" />
        </mxCell>
        <mxCell id="mn31JmgTFe-Z0Zx-DjP2-9" value="&lt;span style=&quot;font-size: 18px;&quot;&gt;&lt;font style=&quot;color: rgb(0, 0, 0);&quot; face=&quot;宋体&quot;&gt;多头跨注意力融合&lt;/font&gt;&lt;/span&gt;" style="rounded=1;whiteSpace=wrap;html=1;fillColor=#FFE599;strokeColor=#000000;container=0;strokeWidth=2;" parent="1" vertex="1">
          <mxGeometry x="132.5" y="390.75" width="184.5" height="30" as="geometry" />
        </mxCell>
        <mxCell id="mn31JmgTFe-Z0Zx-DjP2-10" style="edgeStyle=orthogonalEdgeStyle;rounded=0;orthogonalLoop=1;jettySize=auto;html=1;entryX=0.5;entryY=1;entryDx=0;entryDy=0;strokeWidth=2;" parent="1" source="mn31JmgTFe-Z0Zx-DjP2-11" target="mn31JmgTFe-Z0Zx-DjP2-14" edge="1">
          <mxGeometry relative="1" as="geometry" />
        </mxCell>
        <mxCell id="mn31JmgTFe-Z0Zx-DjP2-11" value="&lt;font face=&quot;宋体&quot; style=&quot;font-size: 18px; color: rgb(0, 0, 0);&quot;&gt;前馈神经网络&lt;/font&gt;" style="rounded=1;whiteSpace=wrap;html=1;fillColor=#FFCE9F;strokeColor=#000000;container=0;strokeWidth=2;" parent="1" vertex="1">
          <mxGeometry x="132.5" y="222" width="184.5" height="30" as="geometry" />
        </mxCell>
        <mxCell id="mn31JmgTFe-Z0Zx-DjP2-12" style="edgeStyle=orthogonalEdgeStyle;rounded=0;orthogonalLoop=1;jettySize=auto;html=1;entryX=0.5;entryY=1;entryDx=0;entryDy=0;strokeWidth=2;" parent="1" source="mn31JmgTFe-Z0Zx-DjP2-13" target="mn31JmgTFe-Z0Zx-DjP2-11" edge="1">
          <mxGeometry relative="1" as="geometry" />
        </mxCell>
        <mxCell id="mn31JmgTFe-Z0Zx-DjP2-13" value="&lt;font face=&quot;Times New Roman&quot; style=&quot;font-size: 18px; color: rgb(0, 0, 0);&quot;&gt;Add &amp;amp; Norm&lt;/font&gt;" style="rounded=1;whiteSpace=wrap;html=1;fillColor=#E6E6E6;strokeColor=#000000;fontColor=#B3B3B3;container=0;strokeWidth=2;" parent="1" vertex="1">
          <mxGeometry x="132.5" y="302" width="184.5" height="30" as="geometry" />
        </mxCell>
        <mxCell id="hFaYfOK_HxvKMeCbFPiz-9" style="edgeStyle=orthogonalEdgeStyle;rounded=0;orthogonalLoop=1;jettySize=auto;html=1;exitX=0.5;exitY=0;exitDx=0;exitDy=0;entryX=0.5;entryY=1;entryDx=0;entryDy=0;strokeWidth=2;" parent="1" source="mn31JmgTFe-Z0Zx-DjP2-14" target="hFaYfOK_HxvKMeCbFPiz-7" edge="1">
          <mxGeometry relative="1" as="geometry" />
        </mxCell>
        <mxCell id="mn31JmgTFe-Z0Zx-DjP2-14" value="&lt;font face=&quot;Times New Roman&quot; style=&quot;font-size: 18px; color: rgb(0, 0, 0);&quot;&gt;Add &amp;amp; Norm&lt;/font&gt;" style="rounded=1;whiteSpace=wrap;html=1;fillColor=#E6E6E6;strokeColor=#000000;fontColor=#B3B3B3;container=0;strokeWidth=2;" parent="1" vertex="1">
          <mxGeometry x="132.5" y="150" width="184.5" height="30" as="geometry" />
        </mxCell>
        <mxCell id="mn31JmgTFe-Z0Zx-DjP2-15" value="&lt;font face=&quot;宋体&quot; style=&quot;font-size: 18px; color: rgb(0, 0, 0);&quot;&gt;多模态向量量化感知的解码器&lt;/font&gt;" style="text;strokeColor=none;align=center;fillColor=none;html=1;verticalAlign=middle;whiteSpace=wrap;rounded=0;textDirection=vertical-lr;rotation=0;container=0;" parent="1" vertex="1">
          <mxGeometry x="27" y="261" width="64" height="240" as="geometry" />
        </mxCell>
        <mxCell id="mn31JmgTFe-Z0Zx-DjP2-90" value="" style="rounded=1;whiteSpace=wrap;html=1;fillColor=#f8cecc;strokeColor=#FFFFFF;shadow=1;" parent="1" vertex="1">
          <mxGeometry x="462.26" y="130" width="303.75" height="358" as="geometry" />
        </mxCell>
        <mxCell id="mn31JmgTFe-Z0Zx-DjP2-91" style="edgeStyle=orthogonalEdgeStyle;rounded=0;orthogonalLoop=1;jettySize=auto;html=1;entryX=0.5;entryY=1;entryDx=0;entryDy=0;strokeWidth=2;" parent="1" source="mn31JmgTFe-Z0Zx-DjP2-92" target="mn31JmgTFe-Z0Zx-DjP2-93" edge="1">
          <mxGeometry relative="1" as="geometry" />
        </mxCell>
        <mxCell id="mn31JmgTFe-Z0Zx-DjP2-92" value="&lt;font face=&quot;宋体&quot; style=&quot;font-size: 18px; color: rgb(0, 0, 0);&quot;&gt;前馈神经网络&lt;/font&gt;" style="rounded=1;whiteSpace=wrap;html=1;fillColor=#FFCE9F;strokeColor=#000000;strokeWidth=2;" parent="1" vertex="1">
          <mxGeometry x="491.75" y="246" width="184.5" height="30" as="geometry" />
        </mxCell>
        <mxCell id="hFaYfOK_HxvKMeCbFPiz-18" style="rounded=0;orthogonalLoop=1;jettySize=auto;html=1;exitX=0.5;exitY=0;exitDx=0;exitDy=0;entryX=0.5;entryY=1;entryDx=0;entryDy=0;strokeWidth=2;" parent="1" source="mn31JmgTFe-Z0Zx-DjP2-93" target="hFaYfOK_HxvKMeCbFPiz-15" edge="1">
          <mxGeometry relative="1" as="geometry" />
        </mxCell>
        <mxCell id="mn31JmgTFe-Z0Zx-DjP2-93" value="&lt;font face=&quot;Times New Roman&quot; style=&quot;font-size: 18px; color: rgb(0, 0, 0);&quot;&gt;Add &amp;amp; Norm&lt;/font&gt;" style="rounded=1;whiteSpace=wrap;html=1;fillColor=#E6E6E6;strokeColor=#000000;fontColor=#B3B3B3;strokeWidth=2;align=center;verticalAlign=middle;fontFamily=Helvetica;fontSize=12;" parent="1" vertex="1">
          <mxGeometry x="491.75" y="158" width="184.5" height="30" as="geometry" />
        </mxCell>
        <mxCell id="mn31JmgTFe-Z0Zx-DjP2-94" style="edgeStyle=orthogonalEdgeStyle;rounded=0;orthogonalLoop=1;jettySize=auto;html=1;entryX=0.5;entryY=1;entryDx=0;entryDy=0;strokeWidth=2;" parent="1" source="mn31JmgTFe-Z0Zx-DjP2-95" target="mn31JmgTFe-Z0Zx-DjP2-97" edge="1">
          <mxGeometry relative="1" as="geometry" />
        </mxCell>
        <mxCell id="mn31JmgTFe-Z0Zx-DjP2-95" value="&lt;font face=&quot;宋体&quot; style=&quot;font-size: 18px; color: rgb(0, 0, 0);&quot;&gt;多头自注意力&lt;/font&gt;" style="rounded=1;whiteSpace=wrap;html=1;fillColor=#FFE599;strokeColor=#000000;strokeWidth=2;" parent="1" vertex="1">
          <mxGeometry x="491.75" y="426" width="184.5" height="30" as="geometry" />
        </mxCell>
        <mxCell id="mn31JmgTFe-Z0Zx-DjP2-96" style="edgeStyle=orthogonalEdgeStyle;rounded=0;orthogonalLoop=1;jettySize=auto;html=1;entryX=0.5;entryY=1;entryDx=0;entryDy=0;strokeWidth=2;" parent="1" source="mn31JmgTFe-Z0Zx-DjP2-97" target="mn31JmgTFe-Z0Zx-DjP2-92" edge="1">
          <mxGeometry relative="1" as="geometry" />
        </mxCell>
        <mxCell id="mn31JmgTFe-Z0Zx-DjP2-97" value="&lt;font face=&quot;Times New Roman&quot; style=&quot;font-size: 18px; color: rgb(0, 0, 0);&quot;&gt;Add &amp;amp; Norm&lt;/font&gt;" style="rounded=1;whiteSpace=wrap;html=1;fillColor=#E6E6E6;strokeColor=#000000;fontColor=#B3B3B3;strokeWidth=2;align=center;verticalAlign=middle;fontFamily=Helvetica;fontSize=12;" parent="1" vertex="1">
          <mxGeometry x="491.75" y="336" width="184.5" height="30" as="geometry" />
        </mxCell>
        <mxCell id="mn31JmgTFe-Z0Zx-DjP2-98" value="&lt;span style=&quot;font-size: 18px;&quot;&gt;&lt;font style=&quot;color: rgb(0, 0, 0);&quot; face=&quot;宋体&quot;&gt;多模态上下文编码器&lt;/font&gt;&lt;/span&gt;" style="text;strokeColor=none;align=center;fillColor=none;html=1;verticalAlign=middle;whiteSpace=wrap;rounded=0;textDirection=vertical-rl;rotation=0;fontColor=#FFD966;" parent="1" vertex="1">
          <mxGeometry x="706.01" y="205.5" width="60" height="185.5" as="geometry" />
        </mxCell>
        <mxCell id="mn31JmgTFe-Z0Zx-DjP2-180" style="edgeStyle=orthogonalEdgeStyle;rounded=0;orthogonalLoop=1;jettySize=auto;html=1;exitX=0.5;exitY=0;exitDx=0;exitDy=0;entryX=0.5;entryY=1;entryDx=0;entryDy=0;strokeWidth=2;" parent="1" source="mn31JmgTFe-Z0Zx-DjP2-170" target="mn31JmgTFe-Z0Zx-DjP2-95" edge="1">
          <mxGeometry relative="1" as="geometry" />
        </mxCell>
        <mxCell id="mn31JmgTFe-Z0Zx-DjP2-170" value="&lt;font style=&quot;font-size: 18px;&quot; face=&quot;Times New Roman&quot;&gt;Add&lt;/font&gt;" style="rounded=1;whiteSpace=wrap;html=1;strokeWidth=2;" parent="1" vertex="1">
          <mxGeometry x="529" y="538" width="110" height="34" as="geometry" />
        </mxCell>
        <mxCell id="mn31JmgTFe-Z0Zx-DjP2-171" value="&lt;b&gt;&lt;font style=&quot;font-size: 18px;&quot;&gt;$$E^{v}$$&lt;/font&gt;&lt;/b&gt;" style="text;strokeColor=none;align=center;fillColor=none;html=1;verticalAlign=middle;whiteSpace=wrap;rounded=0;" parent="1" vertex="1">
          <mxGeometry x="429" y="588" width="60" height="30" as="geometry" />
        </mxCell>
        <mxCell id="mn31JmgTFe-Z0Zx-DjP2-173" value="" style="endArrow=classic;html=1;rounded=0;edgeStyle=orthogonalEdgeStyle;curved=1;strokeWidth=2;strokeColor=#F19C99;fillColor=#fff2cc;" parent="1" edge="1">
          <mxGeometry width="50" height="50" relative="1" as="geometry">
            <mxPoint x="479" y="598" as="sourcePoint" />
            <mxPoint x="549" y="572" as="targetPoint" />
          </mxGeometry>
        </mxCell>
        <mxCell id="mn31JmgTFe-Z0Zx-DjP2-174" value="" style="endArrow=classic;html=1;rounded=0;edgeStyle=orthogonalEdgeStyle;curved=1;strokeWidth=2;strokeColor=#F19C99;fillColor=#fff2cc;" parent="1" edge="1">
          <mxGeometry width="50" height="50" relative="1" as="geometry">
            <mxPoint x="489" y="608" as="sourcePoint" />
            <mxPoint x="559" y="572" as="targetPoint" />
          </mxGeometry>
        </mxCell>
        <mxCell id="mn31JmgTFe-Z0Zx-DjP2-175" value="&lt;font style=&quot;font-size: 18px;&quot; face=&quot;宋体&quot;&gt;图像量化表征&lt;/font&gt;" style="text;strokeColor=none;align=center;fillColor=none;html=1;verticalAlign=middle;whiteSpace=wrap;rounded=0;" parent="1" vertex="1">
          <mxGeometry x="386" y="634" width="120" height="30" as="geometry" />
        </mxCell>
        <mxCell id="mn31JmgTFe-Z0Zx-DjP2-176" value="&lt;b&gt;&lt;font style=&quot;font-size: 18px;&quot;&gt;$$E^{t}$$&lt;/font&gt;&lt;/b&gt;" style="text;strokeColor=none;align=center;fillColor=none;html=1;verticalAlign=middle;whiteSpace=wrap;rounded=0;" parent="1" vertex="1">
          <mxGeometry x="689" y="588" width="60" height="30" as="geometry" />
        </mxCell>
        <mxCell id="mn31JmgTFe-Z0Zx-DjP2-177" value="" style="endArrow=classic;html=1;rounded=0;edgeStyle=orthogonalEdgeStyle;curved=1;strokeWidth=2;strokeColor=#F19C99;fillColor=#fff2cc;" parent="1" edge="1">
          <mxGeometry width="50" height="50" relative="1" as="geometry">
            <mxPoint x="690" y="608" as="sourcePoint" />
            <mxPoint x="620" y="572" as="targetPoint" />
          </mxGeometry>
        </mxCell>
        <mxCell id="mn31JmgTFe-Z0Zx-DjP2-178" value="" style="endArrow=classic;html=1;rounded=0;edgeStyle=orthogonalEdgeStyle;curved=1;strokeWidth=2;strokeColor=#F19C99;fillColor=#fff2cc;" parent="1" edge="1">
          <mxGeometry width="50" height="50" relative="1" as="geometry">
            <mxPoint x="699" y="598" as="sourcePoint" />
            <mxPoint x="629" y="572" as="targetPoint" />
          </mxGeometry>
        </mxCell>
        <mxCell id="mn31JmgTFe-Z0Zx-DjP2-179" value="&lt;font style=&quot;font-size: 18px;&quot; face=&quot;宋体&quot;&gt;文本量化表征&lt;/font&gt;" style="text;strokeColor=none;align=center;fillColor=none;html=1;verticalAlign=middle;whiteSpace=wrap;rounded=0;" parent="1" vertex="1">
          <mxGeometry x="659" y="628" width="120" height="30" as="geometry" />
        </mxCell>
        <mxCell id="mn31JmgTFe-Z0Zx-DjP2-182" value="" style="endArrow=classic;html=1;rounded=0;entryX=0.25;entryY=1;entryDx=0;entryDy=0;edgeStyle=elbowEdgeStyle;elbow=vertical;strokeWidth=2;" parent="1" target="mn31JmgTFe-Z0Zx-DjP2-95" edge="1">
          <mxGeometry width="50" height="50" relative="1" as="geometry">
            <mxPoint x="621.25" y="498" as="sourcePoint" />
            <mxPoint x="681.25" y="388" as="targetPoint" />
            <Array as="points">
              <mxPoint x="581.25" y="498" />
            </Array>
          </mxGeometry>
        </mxCell>
        <mxCell id="mn31JmgTFe-Z0Zx-DjP2-183" value="" style="endArrow=classic;html=1;rounded=0;entryX=0.75;entryY=1;entryDx=0;entryDy=0;edgeStyle=elbowEdgeStyle;elbow=vertical;strokeWidth=2;" parent="1" target="mn31JmgTFe-Z0Zx-DjP2-95" edge="1">
          <mxGeometry width="50" height="50" relative="1" as="geometry">
            <mxPoint x="621.25" y="498" as="sourcePoint" />
            <mxPoint x="686.25" y="456" as="targetPoint" />
            <Array as="points">
              <mxPoint x="661.25" y="498" />
            </Array>
          </mxGeometry>
        </mxCell>
        <mxCell id="mn31JmgTFe-Z0Zx-DjP2-185" value="" style="endArrow=classic;html=1;rounded=0;edgeStyle=elbowEdgeStyle;entryX=1;entryY=0.5;entryDx=0;entryDy=0;strokeWidth=2;" parent="1" target="mn31JmgTFe-Z0Zx-DjP2-93" edge="1">
          <mxGeometry width="50" height="50" relative="1" as="geometry">
            <mxPoint x="584.25" y="309" as="sourcePoint" />
            <mxPoint x="711.25" y="278" as="targetPoint" />
            <Array as="points">
              <mxPoint x="701.25" y="248" />
            </Array>
          </mxGeometry>
        </mxCell>
        <mxCell id="mn31JmgTFe-Z0Zx-DjP2-186" value="" style="endArrow=classic;html=1;rounded=0;edgeStyle=elbowEdgeStyle;entryX=1;entryY=0.5;entryDx=0;entryDy=0;strokeWidth=2;" parent="1" target="mn31JmgTFe-Z0Zx-DjP2-97" edge="1">
          <mxGeometry width="50" height="50" relative="1" as="geometry">
            <mxPoint x="631.25" y="498" as="sourcePoint" />
            <mxPoint x="701.25" y="378" as="targetPoint" />
            <Array as="points">
              <mxPoint x="701.25" y="418" />
            </Array>
          </mxGeometry>
        </mxCell>
        <mxCell id="mn31JmgTFe-Z0Zx-DjP2-195" value="&lt;font style=&quot;font-size: 18px;&quot; face=&quot;Times New Roman&quot;&gt;Add&lt;/font&gt;" style="rounded=1;whiteSpace=wrap;html=1;strokeWidth=2;" parent="1" vertex="1">
          <mxGeometry x="169.75" y="662" width="110" height="34" as="geometry" />
        </mxCell>
        <mxCell id="mn31JmgTFe-Z0Zx-DjP2-196" value="&lt;b&gt;&lt;font style=&quot;font-size: 18px;&quot;&gt;$$F^{v}$$&lt;/font&gt;&lt;/b&gt;" style="text;strokeColor=none;align=center;fillColor=none;html=1;verticalAlign=middle;whiteSpace=wrap;rounded=0;" parent="1" vertex="1">
          <mxGeometry x="69.75" y="712" width="60" height="30" as="geometry" />
        </mxCell>
        <mxCell id="mn31JmgTFe-Z0Zx-DjP2-197" value="" style="endArrow=classic;html=1;rounded=0;edgeStyle=orthogonalEdgeStyle;curved=1;strokeWidth=2;strokeColor=#6c8ebf;fillColor=#dae8fc;" parent="1" edge="1">
          <mxGeometry width="50" height="50" relative="1" as="geometry">
            <mxPoint x="119.75" y="722" as="sourcePoint" />
            <mxPoint x="189.75" y="696" as="targetPoint" />
          </mxGeometry>
        </mxCell>
        <mxCell id="mn31JmgTFe-Z0Zx-DjP2-198" value="" style="endArrow=classic;html=1;rounded=0;edgeStyle=orthogonalEdgeStyle;curved=1;strokeWidth=2;strokeColor=#6c8ebf;fillColor=#dae8fc;" parent="1" edge="1">
          <mxGeometry width="50" height="50" relative="1" as="geometry">
            <mxPoint x="129.75" y="732" as="sourcePoint" />
            <mxPoint x="199.75" y="696" as="targetPoint" />
          </mxGeometry>
        </mxCell>
        <mxCell id="mn31JmgTFe-Z0Zx-DjP2-199" value="&lt;font style=&quot;font-size: 18px;&quot; face=&quot;宋体&quot;&gt;图像初始表征&lt;/font&gt;" style="text;strokeColor=none;align=center;fillColor=none;html=1;verticalAlign=middle;whiteSpace=wrap;rounded=0;" parent="1" vertex="1">
          <mxGeometry x="39.75" y="752" width="120" height="30" as="geometry" />
        </mxCell>
        <mxCell id="mn31JmgTFe-Z0Zx-DjP2-200" value="&lt;b&gt;&lt;font style=&quot;font-size: 18px;&quot;&gt;$$F^{t}$$&lt;/font&gt;&lt;/b&gt;" style="text;strokeColor=none;align=center;fillColor=none;html=1;verticalAlign=middle;whiteSpace=wrap;rounded=0;" parent="1" vertex="1">
          <mxGeometry x="329.75" y="712" width="60" height="30" as="geometry" />
        </mxCell>
        <mxCell id="mn31JmgTFe-Z0Zx-DjP2-201" value="" style="endArrow=classic;html=1;rounded=0;edgeStyle=orthogonalEdgeStyle;curved=1;strokeWidth=2;strokeColor=#6c8ebf;fillColor=#dae8fc;" parent="1" edge="1">
          <mxGeometry width="50" height="50" relative="1" as="geometry">
            <mxPoint x="330.75" y="732" as="sourcePoint" />
            <mxPoint x="260.75" y="696" as="targetPoint" />
          </mxGeometry>
        </mxCell>
        <mxCell id="mn31JmgTFe-Z0Zx-DjP2-202" value="" style="endArrow=classic;html=1;rounded=0;edgeStyle=orthogonalEdgeStyle;curved=1;strokeWidth=2;strokeColor=#6c8ebf;fillColor=#dae8fc;" parent="1" edge="1">
          <mxGeometry width="50" height="50" relative="1" as="geometry">
            <mxPoint x="339.75" y="722" as="sourcePoint" />
            <mxPoint x="269.75" y="696" as="targetPoint" />
          </mxGeometry>
        </mxCell>
        <mxCell id="mn31JmgTFe-Z0Zx-DjP2-203" value="&lt;font style=&quot;font-size: 18px;&quot; face=&quot;宋体&quot;&gt;文本初始表征&lt;/font&gt;" style="text;strokeColor=none;align=center;fillColor=none;html=1;verticalAlign=middle;whiteSpace=wrap;rounded=0;" parent="1" vertex="1">
          <mxGeometry x="299.75" y="740" width="120" height="30" as="geometry" />
        </mxCell>
        <mxCell id="mn31JmgTFe-Z0Zx-DjP2-206" style="edgeStyle=orthogonalEdgeStyle;rounded=0;orthogonalLoop=1;jettySize=auto;html=1;exitX=0.5;exitY=0;exitDx=0;exitDy=0;entryX=0.5;entryY=1;entryDx=0;entryDy=0;strokeWidth=2;" parent="1" source="mn31JmgTFe-Z0Zx-DjP2-195" edge="1">
          <mxGeometry relative="1" as="geometry">
            <mxPoint x="223.75" y="672" as="sourcePoint" />
            <mxPoint x="224.75" y="590" as="targetPoint" />
          </mxGeometry>
        </mxCell>
        <mxCell id="mn31JmgTFe-Z0Zx-DjP2-207" value="" style="endArrow=classic;html=1;rounded=0;entryX=0.25;entryY=1;entryDx=0;entryDy=0;edgeStyle=elbowEdgeStyle;elbow=vertical;strokeWidth=2;" parent="1" edge="1">
          <mxGeometry width="50" height="50" relative="1" as="geometry">
            <mxPoint x="261.75" y="632" as="sourcePoint" />
            <mxPoint x="178.75" y="590" as="targetPoint" />
            <Array as="points">
              <mxPoint x="221.75" y="632" />
            </Array>
          </mxGeometry>
        </mxCell>
        <mxCell id="mn31JmgTFe-Z0Zx-DjP2-208" value="" style="endArrow=classic;html=1;rounded=0;entryX=0.75;entryY=1;entryDx=0;entryDy=0;edgeStyle=elbowEdgeStyle;elbow=vertical;strokeWidth=2;" parent="1" edge="1">
          <mxGeometry width="50" height="50" relative="1" as="geometry">
            <mxPoint x="261.75" y="632" as="sourcePoint" />
            <mxPoint x="270.75" y="590" as="targetPoint" />
            <Array as="points">
              <mxPoint x="301.75" y="632" />
            </Array>
          </mxGeometry>
        </mxCell>
        <mxCell id="mn31JmgTFe-Z0Zx-DjP2-211" value="" style="endArrow=classic;html=1;rounded=0;edgeStyle=elbowEdgeStyle;strokeWidth=2;entryX=0;entryY=0.5;entryDx=0;entryDy=0;" parent="1" target="mn31JmgTFe-Z0Zx-DjP2-7" edge="1">
          <mxGeometry width="50" height="50" relative="1" as="geometry">
            <mxPoint x="179.75" y="632" as="sourcePoint" />
            <mxPoint x="127" y="491" as="targetPoint" />
            <Array as="points">
              <mxPoint x="107" y="566" />
            </Array>
          </mxGeometry>
        </mxCell>
        <mxCell id="mn31JmgTFe-Z0Zx-DjP2-212" value="&lt;font style=&quot;font-size: 18px;&quot; face=&quot;宋体&quot;&gt;查询&lt;/font&gt;" style="text;strokeColor=none;align=center;fillColor=none;html=1;verticalAlign=middle;whiteSpace=wrap;rounded=0;" parent="1" vertex="1">
          <mxGeometry x="227.39999999999998" y="438" width="60" height="30" as="geometry" />
        </mxCell>
        <mxCell id="mn31JmgTFe-Z0Zx-DjP2-213" value="" style="endArrow=classic;html=1;rounded=0;edgeStyle=elbowEdgeStyle;strokeWidth=2;entryX=0;entryY=0.5;entryDx=0;entryDy=0;" parent="1" target="mn31JmgTFe-Z0Zx-DjP2-13" edge="1">
          <mxGeometry width="50" height="50" relative="1" as="geometry">
            <mxPoint x="224" y="450" as="sourcePoint" />
            <mxPoint x="127" y="318" as="targetPoint" />
            <Array as="points">
              <mxPoint x="107" y="390" />
            </Array>
          </mxGeometry>
        </mxCell>
        <mxCell id="mn31JmgTFe-Z0Zx-DjP2-214" value="" style="endArrow=classic;html=1;rounded=0;edgeStyle=elbowEdgeStyle;strokeWidth=2;entryX=0;entryY=0.5;entryDx=0;entryDy=0;" parent="1" target="mn31JmgTFe-Z0Zx-DjP2-14" edge="1">
          <mxGeometry width="50" height="50" relative="1" as="geometry">
            <mxPoint x="224" y="283" as="sourcePoint" />
            <mxPoint x="133" y="150" as="targetPoint" />
            <Array as="points">
              <mxPoint x="107" y="223" />
            </Array>
          </mxGeometry>
        </mxCell>
        <mxCell id="mn31JmgTFe-Z0Zx-DjP2-218" value="&lt;font style=&quot;font-size: 18px;&quot; face=&quot;宋体&quot;&gt;键和值&lt;/font&gt;" style="text;strokeColor=none;align=center;fillColor=none;html=1;verticalAlign=middle;whiteSpace=wrap;rounded=0;" parent="1" vertex="1">
          <mxGeometry x="316.5" y="366" width="60" height="30" as="geometry" />
        </mxCell>
        <mxCell id="mn31JmgTFe-Z0Zx-DjP2-220" value="" style="group;fillColor=#FFE6CC;container=0;" parent="1" vertex="1" connectable="0">
          <mxGeometry x="537.4753666146647" y="65.82502158785695" width="122.52730109204374" height="23.08718169961392" as="geometry" />
        </mxCell>
        <mxCell id="hFaYfOK_HxvKMeCbFPiz-20" style="edgeStyle=orthogonalEdgeStyle;rounded=0;orthogonalLoop=1;jettySize=auto;html=1;exitX=0;exitY=0.5;exitDx=0;exitDy=0;entryX=1;entryY=0.5;entryDx=0;entryDy=0;strokeWidth=2;" parent="1" source="mn31JmgTFe-Z0Zx-DjP2-221" target="mn31JmgTFe-Z0Zx-DjP2-168" edge="1">
          <mxGeometry relative="1" as="geometry">
            <Array as="points">
              <mxPoint x="410" y="77" />
              <mxPoint x="410" y="351" />
            </Array>
          </mxGeometry>
        </mxCell>
        <mxCell id="mn31JmgTFe-Z0Zx-DjP2-221" value="" style="rounded=0;whiteSpace=wrap;html=1;fillColor=#FFCCE6;strokeColor=#000000;container=0;" parent="1" vertex="1">
          <mxGeometry x="537.4753666146647" y="65.82502158785695" width="24.90392298618776" height="23.08718169961392" as="geometry" />
        </mxCell>
        <mxCell id="hFaYfOK_HxvKMeCbFPiz-21" style="edgeStyle=orthogonalEdgeStyle;rounded=0;orthogonalLoop=1;jettySize=auto;html=1;exitX=1;exitY=0.5;exitDx=0;exitDy=0;entryX=0;entryY=0.5;entryDx=0;entryDy=0;strokeWidth=2;" parent="1" source="mn31JmgTFe-Z0Zx-DjP2-222" target="mn31JmgTFe-Z0Zx-DjP2-238" edge="1">
          <mxGeometry relative="1" as="geometry" />
        </mxCell>
        <mxCell id="mn31JmgTFe-Z0Zx-DjP2-222" value="" style="rounded=0;whiteSpace=wrap;html=1;fillColor=#FF0080;container=0;" parent="1" vertex="1">
          <mxGeometry x="636.016718415078" y="65.82502158785695" width="24.90392298618776" height="23.08718169961392" as="geometry" />
        </mxCell>
        <mxCell id="mn31JmgTFe-Z0Zx-DjP2-223" value="" style="rounded=0;whiteSpace=wrap;html=1;fillColor=#FF3399;container=0;" parent="1" vertex="1">
          <mxGeometry x="611.1140891391756" y="65.82502158785695" width="24.90392298618776" height="23.08718169961392" as="geometry" />
        </mxCell>
        <mxCell id="mn31JmgTFe-Z0Zx-DjP2-224" value="" style="rounded=0;whiteSpace=wrap;html=1;fillColor=#FF66B3;container=0;" parent="1" vertex="1">
          <mxGeometry x="586.3731952107355" y="65.82502158785695" width="24.73789683294651" height="23.08718169961392" as="geometry" />
        </mxCell>
        <mxCell id="mn31JmgTFe-Z0Zx-DjP2-225" value="" style="rounded=0;whiteSpace=wrap;html=1;fillColor=#FF99CC;container=0;" parent="1" vertex="1">
          <mxGeometry x="562.3792896008526" y="65.82502158785695" width="24.73789683294651" height="23.08718169961392" as="geometry" />
        </mxCell>
        <mxCell id="mn31JmgTFe-Z0Zx-DjP2-228" style="edgeStyle=orthogonalEdgeStyle;rounded=0;orthogonalLoop=1;jettySize=auto;html=1;entryX=0.5;entryY=1;entryDx=0;entryDy=0;strokeWidth=2;exitX=0.5;exitY=0;exitDx=0;exitDy=0;" parent="1" edge="1">
          <mxGeometry relative="1" as="geometry">
            <mxPoint x="235.53" y="111.5" as="sourcePoint" />
            <mxPoint x="235.79601258196638" y="78.08220328747086" as="targetPoint" />
          </mxGeometry>
        </mxCell>
        <mxCell id="mn31JmgTFe-Z0Zx-DjP2-237" value="&lt;font style=&quot;font-size: 18px;&quot; face=&quot;Times New Roman&quot;&gt;$$s^{mo}$$&lt;/font&gt;" style="text;strokeColor=none;align=center;fillColor=none;html=1;verticalAlign=middle;whiteSpace=wrap;rounded=0;container=0;" parent="1" vertex="1">
          <mxGeometry x="330" y="61.54" width="43" height="30" as="geometry" />
        </mxCell>
        <mxCell id="mn31JmgTFe-Z0Zx-DjP2-238" value="&lt;font style=&quot;font-size: 18px;&quot; face=&quot;Times New Roman&quot;&gt;$$s^{vq}$$&lt;/font&gt;" style="text;strokeColor=none;align=center;fillColor=none;html=1;verticalAlign=middle;whiteSpace=wrap;rounded=0;" parent="1" vertex="1">
          <mxGeometry x="685.27" y="61.54" width="35" height="30" as="geometry" />
        </mxCell>
        <mxCell id="mn31JmgTFe-Z0Zx-DjP2-239" value="" style="endArrow=classic;html=1;rounded=0;entryX=0.5;entryY=1;entryDx=0;entryDy=0;strokeWidth=2;strokeColor=#000000;fillColor=#f8cecc;" parent="1" target="mn31JmgTFe-Z0Zx-DjP2-195" edge="1">
          <mxGeometry width="50" height="50" relative="1" as="geometry">
            <mxPoint x="225" y="730" as="sourcePoint" />
            <mxPoint x="257" y="740" as="targetPoint" />
          </mxGeometry>
        </mxCell>
        <mxCell id="mn31JmgTFe-Z0Zx-DjP2-240" value="&lt;b&gt;&lt;font style=&quot;font-size: 18px;&quot;&gt;$$P$$&lt;/font&gt;&lt;/b&gt;" style="text;strokeColor=none;align=center;fillColor=none;html=1;verticalAlign=middle;whiteSpace=wrap;rounded=0;" parent="1" vertex="1">
          <mxGeometry x="194.75" y="739" width="60" height="30" as="geometry" />
        </mxCell>
        <mxCell id="mn31JmgTFe-Z0Zx-DjP2-241" value="&lt;font face=&quot;宋体&quot;&gt;&lt;span style=&quot;font-size: 18px;&quot;&gt;位置嵌入&lt;/span&gt;&lt;/font&gt;" style="text;strokeColor=none;align=center;fillColor=none;html=1;verticalAlign=middle;whiteSpace=wrap;rounded=0;" parent="1" vertex="1">
          <mxGeometry x="167.39999999999998" y="770" width="120" height="30" as="geometry" />
        </mxCell>
        <mxCell id="mn31JmgTFe-Z0Zx-DjP2-242" value="" style="endArrow=classic;html=1;rounded=0;entryX=0.5;entryY=1;entryDx=0;entryDy=0;strokeWidth=2;strokeColor=#000000;" parent="1" edge="1">
          <mxGeometry width="50" height="50" relative="1" as="geometry">
            <mxPoint x="584.64" y="606" as="sourcePoint" />
            <mxPoint x="584.64" y="572" as="targetPoint" />
          </mxGeometry>
        </mxCell>
        <mxCell id="mn31JmgTFe-Z0Zx-DjP2-243" value="&lt;b&gt;&lt;font style=&quot;font-size: 18px;&quot;&gt;$$P$$&lt;/font&gt;&lt;/b&gt;" style="text;strokeColor=none;align=center;fillColor=none;html=1;verticalAlign=middle;whiteSpace=wrap;rounded=0;" parent="1" vertex="1">
          <mxGeometry x="556.35" y="609.5" width="60" height="30" as="geometry" />
        </mxCell>
        <mxCell id="mn31JmgTFe-Z0Zx-DjP2-244" value="&lt;font face=&quot;宋体&quot;&gt;&lt;span style=&quot;font-size: 18px;&quot;&gt;位置嵌入&lt;/span&gt;&lt;/font&gt;" style="text;strokeColor=none;align=center;fillColor=none;html=1;verticalAlign=middle;whiteSpace=wrap;rounded=0;" parent="1" vertex="1">
          <mxGeometry x="529" y="650.5" width="120" height="30" as="geometry" />
        </mxCell>
        <mxCell id="mn31JmgTFe-Z0Zx-DjP2-245" value="&lt;font face=&quot;Times New Roman&quot; style=&quot;font-size: 14px;&quot;&gt;$$L_m$$&lt;/font&gt;" style="text;strokeColor=none;align=center;fillColor=none;html=1;verticalAlign=middle;whiteSpace=wrap;rounded=0;" parent="1" vertex="1">
          <mxGeometry x="347.4" y="116.91" width="24.99" height="23.09" as="geometry" />
        </mxCell>
        <mxCell id="mn31JmgTFe-Z0Zx-DjP2-246" value="&lt;font face=&quot;Times New Roman&quot; style=&quot;font-size: 14px;&quot;&gt;$$L_m$$&lt;/font&gt;" style="text;strokeColor=none;align=center;fillColor=none;html=1;verticalAlign=middle;whiteSpace=wrap;rounded=0;" parent="1" vertex="1">
          <mxGeometry x="750" y="111.5" width="29" height="23.09" as="geometry" />
        </mxCell>
        <mxCell id="mn31JmgTFe-Z0Zx-DjP2-247" value="&lt;font face=&quot;Times New Roman&quot; style=&quot;font-size: 14px;&quot;&gt;$$L_1$$&lt;/font&gt;" style="text;strokeColor=none;align=center;fillColor=none;html=1;verticalAlign=middle;whiteSpace=wrap;rounded=0;" parent="1" vertex="1">
          <mxGeometry x="317" y="140" width="27.74" height="23.09" as="geometry" />
        </mxCell>
        <mxCell id="mn31JmgTFe-Z0Zx-DjP2-248" value="&lt;font face=&quot;Times New Roman&quot; style=&quot;font-size: 14px;&quot;&gt;$$L_1$$&lt;/font&gt;" style="text;strokeColor=none;align=center;fillColor=none;html=1;verticalAlign=middle;whiteSpace=wrap;rounded=0;" parent="1" vertex="1">
          <mxGeometry x="720.27" y="131.46" width="28.73" height="23.09" as="geometry" />
        </mxCell>
        <mxCell id="mn31JmgTFe-Z0Zx-DjP2-249" value="&lt;font style=&quot;font-size: 18px;&quot; face=&quot;Times New Roman&quot;&gt;...&lt;/font&gt;" style="text;strokeColor=none;align=center;fillColor=none;html=1;verticalAlign=middle;whiteSpace=wrap;rounded=0;rotation=-30;" parent="1" vertex="1">
          <mxGeometry x="342.39" y="128" width="30" height="30" as="geometry" />
        </mxCell>
        <mxCell id="mn31JmgTFe-Z0Zx-DjP2-250" value="&lt;font style=&quot;font-size: 18px;&quot; face=&quot;Times New Roman&quot;&gt;...&lt;/font&gt;" style="text;strokeColor=none;align=center;fillColor=none;html=1;verticalAlign=middle;whiteSpace=wrap;rounded=0;rotation=-30;" parent="1" vertex="1">
          <mxGeometry x="750" y="128" width="21.26" height="14.91" as="geometry" />
        </mxCell>
        <mxCell id="mn31JmgTFe-Z0Zx-DjP2-230" value="" style="group;fillColor=#FFE6CC;container=0;" parent="1" vertex="1" connectable="0">
          <mxGeometry x="177.9992355694227" y="64.99502158785694" width="122.52730109204374" height="23.08718169961392" as="geometry" />
        </mxCell>
        <mxCell id="mn31JmgTFe-Z0Zx-DjP2-231" value="" style="rounded=0;whiteSpace=wrap;html=1;fillColor=#CCE5FF;strokeColor=#000000;container=0;" parent="1" vertex="1">
          <mxGeometry x="177.9992355694227" y="64.99502158785694" width="24.90392298618776" height="23.08718169961392" as="geometry" />
        </mxCell>
        <mxCell id="hFaYfOK_HxvKMeCbFPiz-10" style="rounded=0;orthogonalLoop=1;jettySize=auto;html=1;exitX=1;exitY=0.5;exitDx=0;exitDy=0;entryX=0;entryY=0.5;entryDx=0;entryDy=0;strokeWidth=2;" parent="1" source="mn31JmgTFe-Z0Zx-DjP2-232" target="mn31JmgTFe-Z0Zx-DjP2-237" edge="1">
          <mxGeometry relative="1" as="geometry" />
        </mxCell>
        <mxCell id="mn31JmgTFe-Z0Zx-DjP2-232" value="" style="rounded=0;whiteSpace=wrap;html=1;fillColor=#007FFF;container=0;" parent="1" vertex="1">
          <mxGeometry x="276.5405873698362" y="64.99502158785694" width="24.90392298618776" height="23.08718169961392" as="geometry" />
        </mxCell>
        <mxCell id="mn31JmgTFe-Z0Zx-DjP2-233" value="" style="rounded=0;whiteSpace=wrap;html=1;fillColor=#3399FF;container=0;" parent="1" vertex="1">
          <mxGeometry x="251.63795809393343" y="64.99502158785694" width="24.90392298618776" height="23.08718169961392" as="geometry" />
        </mxCell>
        <mxCell id="mn31JmgTFe-Z0Zx-DjP2-234" value="" style="rounded=0;whiteSpace=wrap;html=1;fillColor=#66B2FF;container=0;" parent="1" vertex="1">
          <mxGeometry x="226.89706416549336" y="64.99502158785694" width="24.73789683294651" height="23.08718169961392" as="geometry" />
        </mxCell>
        <mxCell id="mn31JmgTFe-Z0Zx-DjP2-235" value="" style="rounded=0;whiteSpace=wrap;html=1;fillColor=#99CCFF;container=0;" parent="1" vertex="1">
          <mxGeometry x="202.9031585556104" y="64.99502158785694" width="24.73789683294651" height="23.08718169961392" as="geometry" />
        </mxCell>
        <mxCell id="hFaYfOK_HxvKMeCbFPiz-3" value="" style="group;fillColor=#FFE6CC;container=0;" parent="1" vertex="1" connectable="0">
          <mxGeometry x="163.5292355694227" y="81.91502158785694" width="122.52730109204374" height="23.08718169961392" as="geometry" />
        </mxCell>
        <mxCell id="hFaYfOK_HxvKMeCbFPiz-4" value="" style="rounded=0;whiteSpace=wrap;html=1;fillColor=#CCE5FF;strokeColor=#000000;container=0;" parent="1" vertex="1">
          <mxGeometry x="163.5292355694227" y="81.91502158785694" width="24.90392298618776" height="23.08718169961392" as="geometry" />
        </mxCell>
        <mxCell id="hFaYfOK_HxvKMeCbFPiz-5" value="" style="rounded=0;whiteSpace=wrap;html=1;fillColor=#007FFF;container=0;" parent="1" vertex="1">
          <mxGeometry x="262.0705873698362" y="81.91502158785694" width="24.90392298618776" height="23.08718169961392" as="geometry" />
        </mxCell>
        <mxCell id="hFaYfOK_HxvKMeCbFPiz-6" value="" style="rounded=0;whiteSpace=wrap;html=1;fillColor=#3399FF;container=0;" parent="1" vertex="1">
          <mxGeometry x="237.16795809393344" y="81.91502158785694" width="24.90392298618776" height="23.08718169961392" as="geometry" />
        </mxCell>
        <mxCell id="hFaYfOK_HxvKMeCbFPiz-7" value="" style="rounded=0;whiteSpace=wrap;html=1;fillColor=#66B2FF;container=0;" parent="1" vertex="1">
          <mxGeometry x="212.42706416549336" y="81.91502158785694" width="24.73789683294651" height="23.08718169961392" as="geometry" />
        </mxCell>
        <mxCell id="hFaYfOK_HxvKMeCbFPiz-8" value="" style="rounded=0;whiteSpace=wrap;html=1;fillColor=#99CCFF;container=0;" parent="1" vertex="1">
          <mxGeometry x="188.4331585556104" y="81.91502158785694" width="24.73789683294651" height="23.08718169961392" as="geometry" />
        </mxCell>
        <mxCell id="hFaYfOK_HxvKMeCbFPiz-11" value="" style="group;fillColor=#FFE6CC;container=0;" parent="1" vertex="1" connectable="0">
          <mxGeometry x="521.9953666146647" y="81.91502158785696" width="122.52730109204374" height="23.08718169961392" as="geometry" />
        </mxCell>
        <mxCell id="7zNOKl0elAMxBtKNLMjC-5" style="edgeStyle=orthogonalEdgeStyle;rounded=0;orthogonalLoop=1;jettySize=auto;html=1;exitX=0;exitY=0.5;exitDx=0;exitDy=0;entryX=1;entryY=0.75;entryDx=0;entryDy=0;strokeWidth=2;" parent="1" source="hFaYfOK_HxvKMeCbFPiz-12" target="mn31JmgTFe-Z0Zx-DjP2-9" edge="1">
          <mxGeometry relative="1" as="geometry">
            <Array as="points">
              <mxPoint x="440" y="94" />
              <mxPoint x="440" y="413" />
            </Array>
          </mxGeometry>
        </mxCell>
        <mxCell id="hFaYfOK_HxvKMeCbFPiz-12" value="" style="rounded=0;whiteSpace=wrap;html=1;fillColor=#FFCCE6;strokeColor=#000000;container=0;" parent="1" vertex="1">
          <mxGeometry x="521.9953666146647" y="81.91502158785696" width="24.90392298618776" height="23.08718169961392" as="geometry" />
        </mxCell>
        <mxCell id="hFaYfOK_HxvKMeCbFPiz-13" value="" style="rounded=0;whiteSpace=wrap;html=1;fillColor=#FF0080;container=0;" parent="1" vertex="1">
          <mxGeometry x="620.536718415078" y="81.91502158785696" width="24.90392298618776" height="23.08718169961392" as="geometry" />
        </mxCell>
        <mxCell id="hFaYfOK_HxvKMeCbFPiz-19" value="" style="endArrow=classic;html=1;rounded=0;exitX=0.363;exitY=-0.002;exitDx=0;exitDy=0;exitPerimeter=0;entryX=0.25;entryY=0;entryDx=0;entryDy=0;strokeWidth=2;" parent="1" edge="1">
          <mxGeometry width="50" height="50" relative="1" as="geometry">
            <mxPoint x="598.90975" y="111.50000000000001" as="sourcePoint" />
            <mxPoint x="598.5700698857227" y="82.61502158785693" as="targetPoint" />
          </mxGeometry>
        </mxCell>
        <mxCell id="hFaYfOK_HxvKMeCbFPiz-15" value="" style="rounded=0;whiteSpace=wrap;html=1;fillColor=#FF66B3;container=0;" parent="1" vertex="1">
          <mxGeometry x="570.8931952107355" y="81.91502158785696" width="24.73789683294651" height="23.08718169961392" as="geometry" />
        </mxCell>
        <mxCell id="hFaYfOK_HxvKMeCbFPiz-16" value="" style="rounded=0;whiteSpace=wrap;html=1;fillColor=#FF99CC;container=0;" parent="1" vertex="1">
          <mxGeometry x="546.8992896008526" y="81.91502158785696" width="24.73789683294651" height="23.08718169961392" as="geometry" />
        </mxCell>
        <mxCell id="hFaYfOK_HxvKMeCbFPiz-14" value="" style="rounded=0;whiteSpace=wrap;html=1;fillColor=#FF3399;container=0;" parent="1" vertex="1">
          <mxGeometry x="595.6340891391756" y="81.91502158785696" width="24.90392298618776" height="23.08718169961392" as="geometry" />
        </mxCell>
        <mxCell id="7zNOKl0elAMxBtKNLMjC-2" value="" style="endArrow=classic;html=1;rounded=0;entryX=1;entryY=0.459;entryDx=0;entryDy=0;entryPerimeter=0;strokeWidth=2;" parent="1" target="mn31JmgTFe-Z0Zx-DjP2-168" edge="1">
          <mxGeometry width="50" height="50" relative="1" as="geometry">
            <mxPoint x="410" y="331" as="sourcePoint" />
            <mxPoint x="390" y="330" as="targetPoint" />
          </mxGeometry>
        </mxCell>
        <mxCell id="7zNOKl0elAMxBtKNLMjC-6" value="" style="endArrow=classic;html=1;rounded=0;entryX=1;entryY=0.25;entryDx=0;entryDy=0;strokeWidth=2;" parent="1" target="mn31JmgTFe-Z0Zx-DjP2-9" edge="1">
          <mxGeometry width="50" height="50" relative="1" as="geometry">
            <mxPoint x="440" y="398" as="sourcePoint" />
            <mxPoint x="290" y="410" as="targetPoint" />
          </mxGeometry>
        </mxCell>
        <mxCell id="ugRHbfkgj1QIw6XCtqsc-1" value="" style="rounded=1;dashed=1;strokeWidth=2;strokeColor=#999999;" vertex="1" parent="1">
          <mxGeometry x="13" y="880" width="814" height="780" as="geometry" />
        </mxCell>
        <mxCell id="ugRHbfkgj1QIw6XCtqsc-2" value="" style="rounded=1;fillColor=#f8cecc;strokeColor=#FFFFFF;shadow=1;" vertex="1" parent="1">
          <mxGeometry x="499.12" y="951.5" width="303.25" height="350" as="geometry" />
        </mxCell>
        <mxCell id="ugRHbfkgj1QIw6XCtqsc-3" value="" style="rounded=1;strokeColor=#FFFFFF;fillColor=#dae8fc;container=0;textShadow=1;shadow=1;" vertex="1" parent="1">
          <mxGeometry x="64" y="951.5" width="330" height="478.5" as="geometry" />
        </mxCell>
        <mxCell id="ugRHbfkgj1QIw6XCtqsc-4" value="" style="rounded=1;strokeColor=#FFFFFF;fillColor=#dae8fc;container=0;shadow=1;glass=0;" vertex="1" parent="1">
          <mxGeometry x="34" y="970" width="330" height="488.5" as="geometry" />
        </mxCell>
        <mxCell id="ugRHbfkgj1QIw6XCtqsc-5" value="" style="edgeStyle=orthogonalEdgeStyle;rounded=0;orthogonalLoop=1;jettySize=auto;exitX=0.5;exitY=0;exitDx=0;exitDy=0;strokeWidth=2;" edge="1" source="ugRHbfkgj1QIw6XCtqsc-6" target="ugRHbfkgj1QIw6XCtqsc-8" parent="1">
          <mxGeometry relative="1" as="geometry" />
        </mxCell>
        <mxCell id="ugRHbfkgj1QIw6XCtqsc-6" value="" style="rounded=1;fillColor=#FFE599;strokeColor=#000000;container=0;strokeWidth=2;" vertex="1" parent="1">
          <mxGeometry x="139" y="1400" width="184.5" height="30" as="geometry" />
        </mxCell>
        <mxCell id="ugRHbfkgj1QIw6XCtqsc-7" value="" style="edgeStyle=orthogonalEdgeStyle;rounded=0;orthogonalLoop=1;jettySize=auto;entryX=0.5;entryY=1;entryDx=0;entryDy=0;strokeWidth=2;" edge="1" source="ugRHbfkgj1QIw6XCtqsc-8" target="ugRHbfkgj1QIw6XCtqsc-10" parent="1">
          <mxGeometry relative="1" as="geometry" />
        </mxCell>
        <mxCell id="ugRHbfkgj1QIw6XCtqsc-8" value="" style="rounded=1;fillColor=#E6E6E6;strokeColor=#000000;fontColor=#B3B3B3;container=0;strokeWidth=2;align=center;verticalAlign=middle;fontFamily=Helvetica;fontSize=12;" vertex="1" parent="1">
          <mxGeometry x="139.5" y="1316" width="184.5" height="30" as="geometry" />
        </mxCell>
        <mxCell id="ugRHbfkgj1QIw6XCtqsc-9" value="" style="edgeStyle=orthogonalEdgeStyle;rounded=0;orthogonalLoop=1;jettySize=auto;entryX=0.5;entryY=1;entryDx=0;entryDy=0;strokeWidth=2;" edge="1" source="ugRHbfkgj1QIw6XCtqsc-10" target="ugRHbfkgj1QIw6XCtqsc-14" parent="1">
          <mxGeometry relative="1" as="geometry" />
        </mxCell>
        <mxCell id="ugRHbfkgj1QIw6XCtqsc-10" value="" style="rounded=1;fillColor=#FFE599;strokeColor=#000000;container=0;strokeWidth=2;" vertex="1" parent="1">
          <mxGeometry x="139.5" y="1230.75" width="184.5" height="30" as="geometry" />
        </mxCell>
        <mxCell id="ugRHbfkgj1QIw6XCtqsc-11" value="" style="edgeStyle=orthogonalEdgeStyle;rounded=0;orthogonalLoop=1;jettySize=auto;entryX=0.5;entryY=1;entryDx=0;entryDy=0;strokeWidth=2;" edge="1" source="ugRHbfkgj1QIw6XCtqsc-12" target="ugRHbfkgj1QIw6XCtqsc-16" parent="1">
          <mxGeometry relative="1" as="geometry" />
        </mxCell>
        <mxCell id="ugRHbfkgj1QIw6XCtqsc-12" value="" style="rounded=1;fillColor=#FFCE9F;strokeColor=#000000;container=0;strokeWidth=2;" vertex="1" parent="1">
          <mxGeometry x="139.5" y="1062" width="184.5" height="30" as="geometry" />
        </mxCell>
        <mxCell id="ugRHbfkgj1QIw6XCtqsc-13" value="" style="edgeStyle=orthogonalEdgeStyle;rounded=0;orthogonalLoop=1;jettySize=auto;entryX=0.5;entryY=1;entryDx=0;entryDy=0;strokeWidth=2;" edge="1" source="ugRHbfkgj1QIw6XCtqsc-14" target="ugRHbfkgj1QIw6XCtqsc-12" parent="1">
          <mxGeometry relative="1" as="geometry" />
        </mxCell>
        <mxCell id="ugRHbfkgj1QIw6XCtqsc-14" value="" style="rounded=1;fillColor=#E6E6E6;strokeColor=#000000;fontColor=#B3B3B3;container=0;strokeWidth=2;" vertex="1" parent="1">
          <mxGeometry x="139.5" y="1142" width="184.5" height="30" as="geometry" />
        </mxCell>
        <mxCell id="ugRHbfkgj1QIw6XCtqsc-15" value="" style="edgeStyle=orthogonalEdgeStyle;rounded=0;orthogonalLoop=1;jettySize=auto;exitX=0.5;exitY=0;exitDx=0;exitDy=0;entryX=0.5;entryY=1;entryDx=0;entryDy=0;strokeWidth=2;" edge="1" source="ugRHbfkgj1QIw6XCtqsc-16" target="ugRHbfkgj1QIw6XCtqsc-93" parent="1">
          <mxGeometry relative="1" as="geometry" />
        </mxCell>
        <mxCell id="ugRHbfkgj1QIw6XCtqsc-16" value="" style="rounded=1;fillColor=#E6E6E6;strokeColor=#000000;fontColor=#B3B3B3;container=0;strokeWidth=2;" vertex="1" parent="1">
          <mxGeometry x="139.5" y="990" width="184.5" height="30" as="geometry" />
        </mxCell>
        <mxCell id="ugRHbfkgj1QIw6XCtqsc-18" value="" style="rounded=1;fillColor=#f8cecc;strokeColor=#FFFFFF;shadow=1;" vertex="1" parent="1">
          <mxGeometry x="469.26" y="970" width="303.75" height="358" as="geometry" />
        </mxCell>
        <mxCell id="ugRHbfkgj1QIw6XCtqsc-19" value="" style="edgeStyle=orthogonalEdgeStyle;rounded=0;orthogonalLoop=1;jettySize=auto;entryX=0.5;entryY=1;entryDx=0;entryDy=0;strokeWidth=2;" edge="1" source="ugRHbfkgj1QIw6XCtqsc-20" target="ugRHbfkgj1QIw6XCtqsc-22" parent="1">
          <mxGeometry relative="1" as="geometry" />
        </mxCell>
        <mxCell id="ugRHbfkgj1QIw6XCtqsc-20" value="" style="rounded=1;fillColor=#FFCE9F;strokeColor=#000000;strokeWidth=2;" vertex="1" parent="1">
          <mxGeometry x="498.75" y="1086" width="184.5" height="30" as="geometry" />
        </mxCell>
        <mxCell id="ugRHbfkgj1QIw6XCtqsc-21" value="" style="rounded=0;orthogonalLoop=1;jettySize=auto;exitX=0.5;exitY=0;exitDx=0;exitDy=0;entryX=0.5;entryY=1;entryDx=0;entryDy=0;strokeWidth=2;" edge="1" source="ugRHbfkgj1QIw6XCtqsc-22" target="ugRHbfkgj1QIw6XCtqsc-100" parent="1">
          <mxGeometry relative="1" as="geometry" />
        </mxCell>
        <mxCell id="ugRHbfkgj1QIw6XCtqsc-22" value="" style="rounded=1;fillColor=#E6E6E6;strokeColor=#000000;fontColor=#B3B3B3;strokeWidth=2;align=center;verticalAlign=middle;fontFamily=Helvetica;fontSize=12;" vertex="1" parent="1">
          <mxGeometry x="498.75" y="998" width="184.5" height="30" as="geometry" />
        </mxCell>
        <mxCell id="ugRHbfkgj1QIw6XCtqsc-23" value="" style="edgeStyle=orthogonalEdgeStyle;rounded=0;orthogonalLoop=1;jettySize=auto;entryX=0.5;entryY=1;entryDx=0;entryDy=0;strokeWidth=2;" edge="1" source="ugRHbfkgj1QIw6XCtqsc-24" target="ugRHbfkgj1QIw6XCtqsc-26" parent="1">
          <mxGeometry relative="1" as="geometry" />
        </mxCell>
        <mxCell id="ugRHbfkgj1QIw6XCtqsc-24" value="" style="rounded=1;fillColor=#FFE599;strokeColor=#000000;strokeWidth=2;" vertex="1" parent="1">
          <mxGeometry x="498.75" y="1266" width="184.5" height="30" as="geometry" />
        </mxCell>
        <mxCell id="ugRHbfkgj1QIw6XCtqsc-25" value="" style="edgeStyle=orthogonalEdgeStyle;rounded=0;orthogonalLoop=1;jettySize=auto;entryX=0.5;entryY=1;entryDx=0;entryDy=0;strokeWidth=2;" edge="1" source="ugRHbfkgj1QIw6XCtqsc-26" target="ugRHbfkgj1QIw6XCtqsc-20" parent="1">
          <mxGeometry relative="1" as="geometry" />
        </mxCell>
        <mxCell id="ugRHbfkgj1QIw6XCtqsc-26" value="" style="rounded=1;fillColor=#E6E6E6;strokeColor=#000000;fontColor=#B3B3B3;strokeWidth=2;align=center;verticalAlign=middle;fontFamily=Helvetica;fontSize=12;" vertex="1" parent="1">
          <mxGeometry x="498.75" y="1176" width="184.5" height="30" as="geometry" />
        </mxCell>
        <mxCell id="ugRHbfkgj1QIw6XCtqsc-28" value="" style="edgeStyle=orthogonalEdgeStyle;rounded=0;orthogonalLoop=1;jettySize=auto;exitX=0.5;exitY=0;exitDx=0;exitDy=0;entryX=0.5;entryY=1;entryDx=0;entryDy=0;strokeWidth=2;" edge="1" source="ugRHbfkgj1QIw6XCtqsc-29" target="ugRHbfkgj1QIw6XCtqsc-24" parent="1">
          <mxGeometry relative="1" as="geometry" />
        </mxCell>
        <mxCell id="ugRHbfkgj1QIw6XCtqsc-29" value="" style="rounded=1;strokeWidth=2;" vertex="1" parent="1">
          <mxGeometry x="536" y="1378" width="110" height="34" as="geometry" />
        </mxCell>
        <mxCell id="ugRHbfkgj1QIw6XCtqsc-31" value="" style="endArrow=classic;rounded=0;edgeStyle=orthogonalEdgeStyle;curved=1;strokeWidth=2;strokeColor=#F19C99;fillColor=#fff2cc;" edge="1" parent="1">
          <mxGeometry width="50" height="50" relative="1" as="geometry">
            <mxPoint x="486" y="1438" as="sourcePoint" />
            <mxPoint x="556" y="1412" as="targetPoint" />
          </mxGeometry>
        </mxCell>
        <mxCell id="ugRHbfkgj1QIw6XCtqsc-32" value="" style="endArrow=classic;rounded=0;edgeStyle=orthogonalEdgeStyle;curved=1;strokeWidth=2;strokeColor=#F19C99;fillColor=#fff2cc;" edge="1" parent="1">
          <mxGeometry width="50" height="50" relative="1" as="geometry">
            <mxPoint x="496" y="1448" as="sourcePoint" />
            <mxPoint x="566" y="1412" as="targetPoint" />
          </mxGeometry>
        </mxCell>
        <mxCell id="ugRHbfkgj1QIw6XCtqsc-35" value="" style="endArrow=classic;rounded=0;edgeStyle=orthogonalEdgeStyle;curved=1;strokeWidth=2;strokeColor=#F19C99;fillColor=#fff2cc;" edge="1" parent="1">
          <mxGeometry width="50" height="50" relative="1" as="geometry">
            <mxPoint x="697" y="1448" as="sourcePoint" />
            <mxPoint x="627" y="1412" as="targetPoint" />
          </mxGeometry>
        </mxCell>
        <mxCell id="ugRHbfkgj1QIw6XCtqsc-36" value="" style="endArrow=classic;rounded=0;edgeStyle=orthogonalEdgeStyle;curved=1;strokeWidth=2;strokeColor=#F19C99;fillColor=#fff2cc;" edge="1" parent="1">
          <mxGeometry width="50" height="50" relative="1" as="geometry">
            <mxPoint x="706" y="1438" as="sourcePoint" />
            <mxPoint x="636" y="1412" as="targetPoint" />
          </mxGeometry>
        </mxCell>
        <mxCell id="ugRHbfkgj1QIw6XCtqsc-38" value="" style="endArrow=classic;rounded=0;entryX=0.25;entryY=1;entryDx=0;entryDy=0;edgeStyle=elbowEdgeStyle;elbow=vertical;strokeWidth=2;" edge="1" target="ugRHbfkgj1QIw6XCtqsc-24" parent="1">
          <mxGeometry width="50" height="50" relative="1" as="geometry">
            <mxPoint x="628.25" y="1338" as="sourcePoint" />
            <mxPoint x="688.25" y="1228" as="targetPoint" />
            <Array as="points">
              <mxPoint x="588.25" y="1338" />
            </Array>
          </mxGeometry>
        </mxCell>
        <mxCell id="ugRHbfkgj1QIw6XCtqsc-39" value="" style="endArrow=classic;rounded=0;entryX=0.75;entryY=1;entryDx=0;entryDy=0;edgeStyle=elbowEdgeStyle;elbow=vertical;strokeWidth=2;" edge="1" target="ugRHbfkgj1QIw6XCtqsc-24" parent="1">
          <mxGeometry width="50" height="50" relative="1" as="geometry">
            <mxPoint x="628.25" y="1338" as="sourcePoint" />
            <mxPoint x="693.25" y="1296" as="targetPoint" />
            <Array as="points">
              <mxPoint x="668.25" y="1338" />
            </Array>
          </mxGeometry>
        </mxCell>
        <mxCell id="ugRHbfkgj1QIw6XCtqsc-40" value="" style="endArrow=classic;rounded=0;edgeStyle=elbowEdgeStyle;entryX=1;entryY=0.5;entryDx=0;entryDy=0;strokeWidth=2;" edge="1" target="ugRHbfkgj1QIw6XCtqsc-22" parent="1">
          <mxGeometry width="50" height="50" relative="1" as="geometry">
            <mxPoint x="591.25" y="1149" as="sourcePoint" />
            <mxPoint x="718.25" y="1118" as="targetPoint" />
            <Array as="points">
              <mxPoint x="708.25" y="1088" />
            </Array>
          </mxGeometry>
        </mxCell>
        <mxCell id="ugRHbfkgj1QIw6XCtqsc-41" value="" style="endArrow=classic;rounded=0;edgeStyle=elbowEdgeStyle;entryX=1;entryY=0.5;entryDx=0;entryDy=0;strokeWidth=2;" edge="1" target="ugRHbfkgj1QIw6XCtqsc-26" parent="1">
          <mxGeometry width="50" height="50" relative="1" as="geometry">
            <mxPoint x="638.25" y="1338" as="sourcePoint" />
            <mxPoint x="708.25" y="1218" as="targetPoint" />
            <Array as="points">
              <mxPoint x="708.25" y="1258" />
            </Array>
          </mxGeometry>
        </mxCell>
        <mxCell id="ugRHbfkgj1QIw6XCtqsc-42" value="" style="rounded=1;strokeWidth=2;" vertex="1" parent="1">
          <mxGeometry x="176.75" y="1502" width="110" height="34" as="geometry" />
        </mxCell>
        <mxCell id="ugRHbfkgj1QIw6XCtqsc-44" value="" style="endArrow=classic;rounded=0;edgeStyle=orthogonalEdgeStyle;curved=1;strokeWidth=2;strokeColor=#6c8ebf;fillColor=#dae8fc;" edge="1" parent="1">
          <mxGeometry width="50" height="50" relative="1" as="geometry">
            <mxPoint x="126.75" y="1562" as="sourcePoint" />
            <mxPoint x="196.75" y="1536" as="targetPoint" />
          </mxGeometry>
        </mxCell>
        <mxCell id="ugRHbfkgj1QIw6XCtqsc-45" value="" style="endArrow=classic;rounded=0;edgeStyle=orthogonalEdgeStyle;curved=1;strokeWidth=2;strokeColor=#6c8ebf;fillColor=#dae8fc;" edge="1" parent="1">
          <mxGeometry width="50" height="50" relative="1" as="geometry">
            <mxPoint x="136.75" y="1572" as="sourcePoint" />
            <mxPoint x="206.75" y="1536" as="targetPoint" />
          </mxGeometry>
        </mxCell>
        <mxCell id="ugRHbfkgj1QIw6XCtqsc-48" value="" style="endArrow=classic;rounded=0;edgeStyle=orthogonalEdgeStyle;curved=1;strokeWidth=2;strokeColor=#6c8ebf;fillColor=#dae8fc;" edge="1" parent="1">
          <mxGeometry width="50" height="50" relative="1" as="geometry">
            <mxPoint x="337.75" y="1572" as="sourcePoint" />
            <mxPoint x="267.75" y="1536" as="targetPoint" />
          </mxGeometry>
        </mxCell>
        <mxCell id="ugRHbfkgj1QIw6XCtqsc-49" value="" style="endArrow=classic;rounded=0;edgeStyle=orthogonalEdgeStyle;curved=1;strokeWidth=2;strokeColor=#6c8ebf;fillColor=#dae8fc;" edge="1" parent="1">
          <mxGeometry width="50" height="50" relative="1" as="geometry">
            <mxPoint x="346.75" y="1562" as="sourcePoint" />
            <mxPoint x="276.75" y="1536" as="targetPoint" />
          </mxGeometry>
        </mxCell>
        <mxCell id="ugRHbfkgj1QIw6XCtqsc-51" value="" style="edgeStyle=orthogonalEdgeStyle;rounded=0;orthogonalLoop=1;jettySize=auto;exitX=0.5;exitY=0;exitDx=0;exitDy=0;entryX=0.5;entryY=1;entryDx=0;entryDy=0;strokeWidth=2;" edge="1" source="ugRHbfkgj1QIw6XCtqsc-42" parent="1">
          <mxGeometry relative="1" as="geometry">
            <mxPoint x="230.75" y="1512" as="sourcePoint" />
            <mxPoint x="231.75" y="1430" as="targetPoint" />
          </mxGeometry>
        </mxCell>
        <mxCell id="ugRHbfkgj1QIw6XCtqsc-52" value="" style="endArrow=classic;rounded=0;entryX=0.25;entryY=1;entryDx=0;entryDy=0;edgeStyle=elbowEdgeStyle;elbow=vertical;strokeWidth=2;" edge="1" parent="1">
          <mxGeometry width="50" height="50" relative="1" as="geometry">
            <mxPoint x="268.75" y="1472" as="sourcePoint" />
            <mxPoint x="185.75" y="1430" as="targetPoint" />
            <Array as="points">
              <mxPoint x="228.75" y="1472" />
            </Array>
          </mxGeometry>
        </mxCell>
        <mxCell id="ugRHbfkgj1QIw6XCtqsc-53" value="" style="endArrow=classic;rounded=0;entryX=0.75;entryY=1;entryDx=0;entryDy=0;edgeStyle=elbowEdgeStyle;elbow=vertical;strokeWidth=2;" edge="1" parent="1">
          <mxGeometry width="50" height="50" relative="1" as="geometry">
            <mxPoint x="268.75" y="1472" as="sourcePoint" />
            <mxPoint x="277.75" y="1430" as="targetPoint" />
            <Array as="points">
              <mxPoint x="308.75" y="1472" />
            </Array>
          </mxGeometry>
        </mxCell>
        <mxCell id="ugRHbfkgj1QIw6XCtqsc-54" value="" style="endArrow=classic;rounded=0;edgeStyle=elbowEdgeStyle;strokeWidth=2;entryX=0;entryY=0.5;entryDx=0;entryDy=0;" edge="1" target="ugRHbfkgj1QIw6XCtqsc-8" parent="1">
          <mxGeometry width="50" height="50" relative="1" as="geometry">
            <mxPoint x="186.75" y="1472" as="sourcePoint" />
            <mxPoint x="134" y="1331" as="targetPoint" />
            <Array as="points">
              <mxPoint x="114" y="1406" />
            </Array>
          </mxGeometry>
        </mxCell>
        <mxCell id="ugRHbfkgj1QIw6XCtqsc-56" value="" style="endArrow=classic;rounded=0;edgeStyle=elbowEdgeStyle;strokeWidth=2;entryX=0;entryY=0.5;entryDx=0;entryDy=0;" edge="1" target="ugRHbfkgj1QIw6XCtqsc-14" parent="1">
          <mxGeometry width="50" height="50" relative="1" as="geometry">
            <mxPoint x="231" y="1290" as="sourcePoint" />
            <mxPoint x="134" y="1158" as="targetPoint" />
            <Array as="points">
              <mxPoint x="114" y="1230" />
            </Array>
          </mxGeometry>
        </mxCell>
        <mxCell id="ugRHbfkgj1QIw6XCtqsc-57" value="" style="endArrow=classic;rounded=0;edgeStyle=elbowEdgeStyle;strokeWidth=2;entryX=0;entryY=0.5;entryDx=0;entryDy=0;" edge="1" target="ugRHbfkgj1QIw6XCtqsc-16" parent="1">
          <mxGeometry width="50" height="50" relative="1" as="geometry">
            <mxPoint x="231" y="1123" as="sourcePoint" />
            <mxPoint x="140" y="990" as="targetPoint" />
            <Array as="points">
              <mxPoint x="114" y="1063" />
            </Array>
          </mxGeometry>
        </mxCell>
        <mxCell id="ugRHbfkgj1QIw6XCtqsc-59" value="" style="group;fillColor=#FFE6CC;container=0;" vertex="1" connectable="0" parent="1">
          <mxGeometry x="544.4753666146647" y="905.825021587857" width="122.52730109204374" height="23.08718169961392" as="geometry" />
        </mxCell>
        <mxCell id="ugRHbfkgj1QIw6XCtqsc-60" value="" style="edgeStyle=orthogonalEdgeStyle;rounded=0;orthogonalLoop=1;jettySize=auto;exitX=0;exitY=0.5;exitDx=0;exitDy=0;entryX=1;entryY=0.5;entryDx=0;entryDy=0;strokeWidth=2;" edge="1" source="ugRHbfkgj1QIw6XCtqsc-61" target="ugRHbfkgj1QIw6XCtqsc-3" parent="1">
          <mxGeometry relative="1" as="geometry">
            <Array as="points">
              <mxPoint x="417" y="917" />
              <mxPoint x="417" y="1191" />
            </Array>
          </mxGeometry>
        </mxCell>
        <mxCell id="ugRHbfkgj1QIw6XCtqsc-61" value="" style="rounded=0;fillColor=#FFCCE6;strokeColor=#000000;container=0;" vertex="1" parent="1">
          <mxGeometry x="544.4753666146647" y="905.825021587857" width="24.90392298618776" height="23.08718169961392" as="geometry" />
        </mxCell>
        <mxCell id="ugRHbfkgj1QIw6XCtqsc-62" value="" style="edgeStyle=orthogonalEdgeStyle;rounded=0;orthogonalLoop=1;jettySize=auto;exitX=1;exitY=0.5;exitDx=0;exitDy=0;entryX=0;entryY=0.5;entryDx=0;entryDy=0;strokeWidth=2;" edge="1" source="ugRHbfkgj1QIw6XCtqsc-63" parent="1">
          <mxGeometry relative="1" as="geometry">
            <mxPoint x="692.2700000000002" y="916.54" as="targetPoint" />
          </mxGeometry>
        </mxCell>
        <mxCell id="ugRHbfkgj1QIw6XCtqsc-63" value="" style="rounded=0;fillColor=#FF0080;container=0;" vertex="1" parent="1">
          <mxGeometry x="643.016718415078" y="905.825021587857" width="24.90392298618776" height="23.08718169961392" as="geometry" />
        </mxCell>
        <mxCell id="ugRHbfkgj1QIw6XCtqsc-64" value="" style="rounded=0;fillColor=#FF3399;container=0;" vertex="1" parent="1">
          <mxGeometry x="618.1140891391756" y="905.825021587857" width="24.90392298618776" height="23.08718169961392" as="geometry" />
        </mxCell>
        <mxCell id="ugRHbfkgj1QIw6XCtqsc-65" value="" style="rounded=0;fillColor=#FF66B3;container=0;" vertex="1" parent="1">
          <mxGeometry x="593.3731952107355" y="905.825021587857" width="24.73789683294651" height="23.08718169961392" as="geometry" />
        </mxCell>
        <mxCell id="ugRHbfkgj1QIw6XCtqsc-66" value="" style="rounded=0;fillColor=#FF99CC;container=0;" vertex="1" parent="1">
          <mxGeometry x="569.3792896008526" y="905.825021587857" width="24.73789683294651" height="23.08718169961392" as="geometry" />
        </mxCell>
        <mxCell id="ugRHbfkgj1QIw6XCtqsc-67" value="" style="edgeStyle=orthogonalEdgeStyle;rounded=0;orthogonalLoop=1;jettySize=auto;entryX=0.5;entryY=1;entryDx=0;entryDy=0;strokeWidth=2;exitX=0.5;exitY=0;exitDx=0;exitDy=0;" edge="1" parent="1">
          <mxGeometry relative="1" as="geometry">
            <mxPoint x="242.53" y="951.5" as="sourcePoint" />
            <mxPoint x="242.79601258196638" y="918.0822032874709" as="targetPoint" />
          </mxGeometry>
        </mxCell>
        <mxCell id="ugRHbfkgj1QIw6XCtqsc-70" value="" style="endArrow=classic;rounded=0;entryX=0.5;entryY=1;entryDx=0;entryDy=0;strokeWidth=2;strokeColor=#000000;fillColor=#f8cecc;" edge="1" target="ugRHbfkgj1QIw6XCtqsc-42" parent="1">
          <mxGeometry width="50" height="50" relative="1" as="geometry">
            <mxPoint x="232" y="1570" as="sourcePoint" />
            <mxPoint x="264" y="1580" as="targetPoint" />
          </mxGeometry>
        </mxCell>
        <mxCell id="ugRHbfkgj1QIw6XCtqsc-73" value="" style="endArrow=classic;rounded=0;entryX=0.5;entryY=1;entryDx=0;entryDy=0;strokeWidth=2;strokeColor=#000000;" edge="1" parent="1">
          <mxGeometry width="50" height="50" relative="1" as="geometry">
            <mxPoint x="591.64" y="1446" as="sourcePoint" />
            <mxPoint x="591.64" y="1412" as="targetPoint" />
          </mxGeometry>
        </mxCell>
        <mxCell id="ugRHbfkgj1QIw6XCtqsc-82" value="" style="group;fillColor=#FFE6CC;container=0;" vertex="1" connectable="0" parent="1">
          <mxGeometry x="184.9992355694227" y="904.995021587857" width="122.52730109204374" height="23.08718169961392" as="geometry" />
        </mxCell>
        <mxCell id="ugRHbfkgj1QIw6XCtqsc-83" value="" style="rounded=0;fillColor=#CCE5FF;strokeColor=#000000;container=0;" vertex="1" parent="1">
          <mxGeometry x="184.9992355694227" y="904.995021587857" width="24.90392298618776" height="23.08718169961392" as="geometry" />
        </mxCell>
        <mxCell id="ugRHbfkgj1QIw6XCtqsc-84" value="" style="rounded=0;orthogonalLoop=1;jettySize=auto;exitX=1;exitY=0.5;exitDx=0;exitDy=0;entryX=0;entryY=0.5;entryDx=0;entryDy=0;strokeWidth=2;" edge="1" source="ugRHbfkgj1QIw6XCtqsc-85" parent="1">
          <mxGeometry relative="1" as="geometry">
            <mxPoint x="337" y="916.54" as="targetPoint" />
          </mxGeometry>
        </mxCell>
        <mxCell id="ugRHbfkgj1QIw6XCtqsc-85" value="" style="rounded=0;fillColor=#007FFF;container=0;" vertex="1" parent="1">
          <mxGeometry x="283.5405873698362" y="904.995021587857" width="24.90392298618776" height="23.08718169961392" as="geometry" />
        </mxCell>
        <mxCell id="ugRHbfkgj1QIw6XCtqsc-86" value="" style="rounded=0;fillColor=#3399FF;container=0;" vertex="1" parent="1">
          <mxGeometry x="258.63795809393343" y="904.995021587857" width="24.90392298618776" height="23.08718169961392" as="geometry" />
        </mxCell>
        <mxCell id="ugRHbfkgj1QIw6XCtqsc-87" value="" style="rounded=0;fillColor=#66B2FF;container=0;" vertex="1" parent="1">
          <mxGeometry x="233.89706416549336" y="904.995021587857" width="24.73789683294651" height="23.08718169961392" as="geometry" />
        </mxCell>
        <mxCell id="ugRHbfkgj1QIw6XCtqsc-88" value="" style="rounded=0;fillColor=#99CCFF;container=0;" vertex="1" parent="1">
          <mxGeometry x="209.9031585556104" y="904.995021587857" width="24.73789683294651" height="23.08718169961392" as="geometry" />
        </mxCell>
        <mxCell id="ugRHbfkgj1QIw6XCtqsc-89" value="" style="group;fillColor=#FFE6CC;container=0;" vertex="1" connectable="0" parent="1">
          <mxGeometry x="170.5292355694227" y="921.9150215878569" width="122.52730109204374" height="23.08718169961392" as="geometry" />
        </mxCell>
        <mxCell id="ugRHbfkgj1QIw6XCtqsc-90" value="" style="rounded=0;fillColor=#CCE5FF;strokeColor=#000000;container=0;" vertex="1" parent="1">
          <mxGeometry x="170.5292355694227" y="921.9150215878569" width="24.90392298618776" height="23.08718169961392" as="geometry" />
        </mxCell>
        <mxCell id="ugRHbfkgj1QIw6XCtqsc-91" value="" style="rounded=0;fillColor=#007FFF;container=0;" vertex="1" parent="1">
          <mxGeometry x="269.0705873698362" y="921.9150215878569" width="24.90392298618776" height="23.08718169961392" as="geometry" />
        </mxCell>
        <mxCell id="ugRHbfkgj1QIw6XCtqsc-92" value="" style="rounded=0;fillColor=#3399FF;container=0;" vertex="1" parent="1">
          <mxGeometry x="244.16795809393344" y="921.9150215878569" width="24.90392298618776" height="23.08718169961392" as="geometry" />
        </mxCell>
        <mxCell id="ugRHbfkgj1QIw6XCtqsc-93" value="" style="rounded=0;fillColor=#66B2FF;container=0;" vertex="1" parent="1">
          <mxGeometry x="219.42706416549336" y="921.9150215878569" width="24.73789683294651" height="23.08718169961392" as="geometry" />
        </mxCell>
        <mxCell id="ugRHbfkgj1QIw6XCtqsc-94" value="" style="rounded=0;fillColor=#99CCFF;container=0;" vertex="1" parent="1">
          <mxGeometry x="195.4331585556104" y="921.9150215878569" width="24.73789683294651" height="23.08718169961392" as="geometry" />
        </mxCell>
        <mxCell id="ugRHbfkgj1QIw6XCtqsc-95" value="" style="group;fillColor=#FFE6CC;container=0;" vertex="1" connectable="0" parent="1">
          <mxGeometry x="528.9953666146647" y="921.9150215878569" width="122.52730109204374" height="23.08718169961392" as="geometry" />
        </mxCell>
        <mxCell id="ugRHbfkgj1QIw6XCtqsc-96" value="" style="edgeStyle=orthogonalEdgeStyle;rounded=0;orthogonalLoop=1;jettySize=auto;exitX=0;exitY=0.5;exitDx=0;exitDy=0;entryX=1;entryY=0.75;entryDx=0;entryDy=0;strokeWidth=2;" edge="1" source="ugRHbfkgj1QIw6XCtqsc-97" target="ugRHbfkgj1QIw6XCtqsc-10" parent="1">
          <mxGeometry relative="1" as="geometry">
            <Array as="points">
              <mxPoint x="447" y="934" />
              <mxPoint x="447" y="1253" />
            </Array>
          </mxGeometry>
        </mxCell>
        <mxCell id="ugRHbfkgj1QIw6XCtqsc-97" value="" style="rounded=0;fillColor=#FFCCE6;strokeColor=#000000;container=0;" vertex="1" parent="1">
          <mxGeometry x="528.9953666146647" y="921.9150215878569" width="24.90392298618776" height="23.08718169961392" as="geometry" />
        </mxCell>
        <mxCell id="ugRHbfkgj1QIw6XCtqsc-98" value="" style="rounded=0;fillColor=#FF0080;container=0;" vertex="1" parent="1">
          <mxGeometry x="627.536718415078" y="921.9150215878569" width="24.90392298618776" height="23.08718169961392" as="geometry" />
        </mxCell>
        <mxCell id="ugRHbfkgj1QIw6XCtqsc-99" value="" style="endArrow=classic;rounded=0;exitX=0.363;exitY=-0.002;exitDx=0;exitDy=0;exitPerimeter=0;entryX=0.25;entryY=0;entryDx=0;entryDy=0;strokeWidth=2;" edge="1" parent="1">
          <mxGeometry width="50" height="50" relative="1" as="geometry">
            <mxPoint x="605.90975" y="951.5" as="sourcePoint" />
            <mxPoint x="605.5700698857227" y="922.615021587857" as="targetPoint" />
          </mxGeometry>
        </mxCell>
        <mxCell id="ugRHbfkgj1QIw6XCtqsc-100" value="" style="rounded=0;fillColor=#FF66B3;container=0;" vertex="1" parent="1">
          <mxGeometry x="577.8931952107355" y="921.9150215878569" width="24.73789683294651" height="23.08718169961392" as="geometry" />
        </mxCell>
        <mxCell id="ugRHbfkgj1QIw6XCtqsc-101" value="" style="rounded=0;fillColor=#FF99CC;container=0;" vertex="1" parent="1">
          <mxGeometry x="553.8992896008526" y="921.9150215878569" width="24.73789683294651" height="23.08718169961392" as="geometry" />
        </mxCell>
        <mxCell id="ugRHbfkgj1QIw6XCtqsc-102" value="" style="rounded=0;fillColor=#FF3399;container=0;" vertex="1" parent="1">
          <mxGeometry x="602.6340891391756" y="921.9150215878569" width="24.90392298618776" height="23.08718169961392" as="geometry" />
        </mxCell>
        <mxCell id="ugRHbfkgj1QIw6XCtqsc-103" value="" style="endArrow=classic;rounded=0;entryX=1;entryY=0.459;entryDx=0;entryDy=0;entryPerimeter=0;strokeWidth=2;" edge="1" target="ugRHbfkgj1QIw6XCtqsc-3" parent="1">
          <mxGeometry width="50" height="50" relative="1" as="geometry">
            <mxPoint x="417" y="1171" as="sourcePoint" />
            <mxPoint x="397" y="1170" as="targetPoint" />
          </mxGeometry>
        </mxCell>
        <mxCell id="ugRHbfkgj1QIw6XCtqsc-104" value="" style="endArrow=classic;rounded=0;entryX=1;entryY=0.25;entryDx=0;entryDy=0;strokeWidth=2;" edge="1" target="ugRHbfkgj1QIw6XCtqsc-10" parent="1">
          <mxGeometry width="50" height="50" relative="1" as="geometry">
            <mxPoint x="447" y="1238" as="sourcePoint" />
            <mxPoint x="297" y="1250" as="targetPoint" />
          </mxGeometry>
        </mxCell>
      </root>
    </mxGraphModel>
  </diagram>
</mxfile>
